<svg xmlns="http://www.w3.org/2000/svg" width="32" height="32" viewBox="0 0 100 100"><defs><clipPath id="fbirch"><rect width="100" height="100" rx="20"/></clipPath></defs><g clip-path="url(#fbirch)"><rect width="100" height="100" fill="#EEEAE0"/><rect y="90" width="100" height="10" fill="#806744"/><ellipse cx="50" cy="34" rx="38" ry="25" fill="#4C7A36"/><ellipse cx="44" cy="30" rx="27" ry="17" fill="#79A84E"/><path d="M33.0 90Q37.8 84 37.4 74L38.2 30.0H43.8L44.6 74Q44.2 84 49.0 90Z" fill="#F4F1EA" stroke="#6E6E68" stroke-width="2"/><path d="M53.0 90Q57.2 84 56.9 74L57.5 42.0H62.5L63.1 74Q62.8 84 67.0 90Z" fill="#F4F1EA" stroke="#6E6E68" stroke-width="2"/><path d="M38.6 82.0h4.8" stroke="#2C2C2A" stroke-width="3.2" stroke-linecap="round"/><path d="M38.6 68.0h4.8" stroke="#2C2C2A" stroke-width="3.2" stroke-linecap="round"/><path d="M38.6 54.0h4.8" stroke="#2C2C2A" stroke-width="3.2" stroke-linecap="round"/><path d="M57.6 82.0h4.8" stroke="#2C2C2A" stroke-width="3.2" stroke-linecap="round"/><path d="M57.6 70.0h4.8" stroke="#2C2C2A" stroke-width="3.2" stroke-linecap="round"/><path d="M57.6 58.0h4.8" stroke="#2C2C2A" stroke-width="3.2" stroke-linecap="round"/><path d="M26 40v9M73 38v9" stroke="#7F6610" stroke-width="4.4" stroke-linecap="round"/></g></svg>