<svg xmlns="http://www.w3.org/2000/svg" width="800" height="330" viewBox="0 0 800 330"><rect width="800" height="330" fill="#31485C"/><g opacity="0.75"><circle cx="410" cy="40" r="49" fill="#F2B33D" fill-opacity="0.08"/><circle cx="410" cy="40" r="35" fill="#F2B33D" fill-opacity="0.12"/><circle cx="410" cy="40" r="22" fill="#F2B33D"/></g><g fill="#3D5366"><rect x="-12.5" y="179.2" width="5.0" height="20.8"/><ellipse cx="-10.0" cy="172.5" rx="23.7" ry="14.2"/><rect x="14.7" y="179.0" width="4.9" height="21.0"/><ellipse cx="17.2" cy="172.3" rx="23.2" ry="14.3"/><rect x="38.1" y="182.6" width="5.0" height="17.4"/><ellipse cx="40.5" cy="177.0" rx="23.2" ry="11.9"/><rect x="62.3" y="174.9" width="4.1" height="25.1"/><ellipse cx="64.4" cy="166.9" rx="19.3" ry="17.1"/><rect x="81.8" y="183.7" width="5.5" height="16.3"/><ellipse cx="84.6" cy="178.5" rx="26.0" ry="11.1"/><rect x="106.2" y="184.4" width="5.9" height="15.6"/><ellipse cx="109.1" cy="179.3" rx="27.6" ry="10.6"/><rect x="134.2" y="176.6" width="5.2" height="23.4"/><ellipse cx="136.8" cy="169.2" rx="24.2" ry="15.9"/><rect x="152.8" y="184.7" width="5.0" height="15.3"/><ellipse cx="155.3" cy="179.8" rx="23.4" ry="10.4"/><rect x="170.6" y="182.5" width="4.4" height="17.5"/><ellipse cx="172.8" cy="176.9" rx="20.7" ry="11.9"/><rect x="187.5" y="179.0" width="4.8" height="21.0"/><ellipse cx="189.9" cy="172.3" rx="22.6" ry="14.3"/><rect x="213.6" y="178.3" width="5.2" height="21.7"/><ellipse cx="216.2" cy="171.4" rx="24.4" ry="14.7"/><rect x="236.1" y="176.5" width="4.8" height="23.5"/><ellipse cx="238.6" cy="169.0" rx="22.7" ry="16.0"/><rect x="255.5" y="172.3" width="5.9" height="27.7"/><ellipse cx="258.5" cy="163.4" rx="27.7" ry="18.8"/><rect x="282.4" y="176.0" width="4.6" height="24.0"/><ellipse cx="284.7" cy="168.3" rx="21.4" ry="16.3"/><rect x="302.0" y="181.2" width="4.1" height="18.8"/><ellipse cx="304.1" cy="175.2" rx="19.1" ry="12.8"/><rect x="326.6" y="179.8" width="5.6" height="20.2"/><ellipse cx="329.4" cy="173.4" rx="26.3" ry="13.7"/><rect x="347.8" y="172.8" width="5.6" height="27.2"/><ellipse cx="350.6" cy="164.1" rx="26.3" ry="18.5"/><rect x="364.5" y="182.2" width="5.7" height="17.8"/><ellipse cx="367.4" cy="176.6" rx="26.9" ry="12.1"/><rect x="387.1" y="172.5" width="4.7" height="27.5"/><ellipse cx="389.4" cy="163.7" rx="22.2" ry="18.7"/><rect x="404.3" y="176.9" width="5.5" height="23.1"/><ellipse cx="407.1" cy="169.6" rx="25.7" ry="15.7"/><rect x="424.6" y="183.8" width="4.6" height="16.2"/><ellipse cx="426.9" cy="178.6" rx="21.6" ry="11.0"/><rect x="452.4" y="175.3" width="4.2" height="24.7"/><ellipse cx="454.5" cy="167.4" rx="19.6" ry="16.8"/><rect x="472.0" y="183.6" width="4.1" height="16.4"/><ellipse cx="474.0" cy="178.4" rx="19.0" ry="11.1"/><rect x="497.2" y="182.6" width="5.0" height="17.4"/><ellipse cx="499.8" cy="177.1" rx="23.6" ry="11.8"/><rect x="518.9" y="182.5" width="5.4" height="17.5"/><ellipse cx="521.6" cy="176.9" rx="25.2" ry="11.9"/><rect x="537.7" y="176.8" width="4.2" height="23.2"/><ellipse cx="539.8" cy="169.3" rx="19.6" ry="15.8"/><rect x="559.1" y="182.2" width="4.5" height="17.8"/><ellipse cx="561.3" cy="176.5" rx="21.0" ry="12.1"/><rect x="586.8" y="174.8" width="4.5" height="25.2"/><ellipse cx="589.0" cy="166.7" rx="21.3" ry="17.2"/><rect x="613.4" y="182.2" width="4.7" height="17.8"/><ellipse cx="615.7" cy="176.5" rx="22.1" ry="12.1"/><rect x="640.0" y="176.8" width="4.1" height="23.2"/><ellipse cx="642.1" cy="169.4" rx="19.4" ry="15.8"/><rect x="667.8" y="182.2" width="4.5" height="17.8"/><ellipse cx="670.0" cy="176.5" rx="20.9" ry="12.1"/><rect x="693.2" y="180.7" width="4.5" height="19.3"/><ellipse cx="695.4" cy="174.6" rx="21.2" ry="13.1"/><rect x="710.5" y="183.7" width="5.1" height="16.3"/><ellipse cx="713.1" cy="178.5" rx="23.9" ry="11.1"/><rect x="730.2" y="177.3" width="4.7" height="22.7"/><ellipse cx="732.6" cy="170.0" rx="21.9" ry="15.4"/><rect x="752.0" y="172.8" width="4.9" height="27.2"/><ellipse cx="754.5" cy="164.1" rx="22.9" ry="18.5"/><rect x="775.5" y="174.0" width="4.3" height="26.0"/><ellipse cx="777.7" cy="165.6" rx="20.2" ry="17.7"/><rect x="793.4" y="173.4" width="5.6" height="26.6"/><ellipse cx="796.2" cy="164.9" rx="26.0" ry="18.1"/><rect x="813.1" y="182.5" width="5.4" height="17.5"/><ellipse cx="815.8" cy="176.9" rx="25.3" ry="11.9"/></g><g fill="#374D61"><rect x="-22.0" y="186.5" width="4.0" height="13.5"/><ellipse cx="-20.0" cy="182.1" rx="18.9" ry="9.2"/><rect x="-1.3" y="188.4" width="4.0" height="11.6"/><ellipse cx="0.7" cy="184.7" rx="18.6" ry="7.9"/><rect x="17.7" y="185.3" width="3.0" height="14.7"/><ellipse cx="19.2" cy="180.5" rx="14.2" ry="10.0"/><rect x="30.0" y="187.6" width="3.9" height="12.4"/><ellipse cx="32.0" cy="183.7" rx="18.5" ry="8.4"/><rect x="45.1" y="186.6" width="3.3" height="13.4"/><ellipse cx="46.7" cy="182.4" rx="15.6" ry="9.1"/><rect x="64.7" y="182.8" width="3.4" height="17.2"/><ellipse cx="66.4" cy="177.3" rx="16.1" ry="11.7"/><rect x="85.4" y="190.4" width="4.0" height="9.6"/><ellipse cx="87.4" cy="187.3" rx="18.9" ry="6.5"/><rect x="105.4" y="189.6" width="3.9" height="10.4"/><ellipse cx="107.4" cy="186.3" rx="18.2" ry="7.0"/><rect x="123.1" y="182.7" width="3.2" height="17.3"/><ellipse cx="124.7" cy="177.2" rx="14.9" ry="11.7"/><rect x="139.9" y="183.4" width="3.8" height="16.6"/><ellipse cx="141.8" cy="178.0" rx="17.7" ry="11.3"/><rect x="154.9" y="190.2" width="4.2" height="9.8"/><ellipse cx="157.0" cy="187.1" rx="19.8" ry="6.6"/><rect x="172.1" y="182.4" width="3.1" height="17.6"/><ellipse cx="173.6" cy="176.8" rx="14.4" ry="12.0"/><rect x="190.9" y="184.0" width="4.2" height="16.0"/><ellipse cx="193.0" cy="178.8" rx="19.6" ry="10.9"/><rect x="204.3" y="187.7" width="2.9" height="12.3"/><ellipse cx="205.8" cy="183.8" rx="13.8" ry="8.3"/><rect x="222.6" y="187.9" width="4.2" height="12.1"/><ellipse cx="224.7" cy="184.0" rx="19.9" ry="8.2"/><rect x="238.4" y="184.3" width="4.1" height="15.7"/><ellipse cx="240.4" cy="179.3" rx="19.3" ry="10.7"/><rect x="252.9" y="186.2" width="4.2" height="13.8"/><ellipse cx="255.0" cy="181.7" rx="19.9" ry="9.4"/><rect x="270.4" y="187.8" width="3.3" height="12.2"/><ellipse cx="272.1" cy="184.0" rx="15.2" ry="8.3"/><rect x="289.4" y="189.3" width="3.7" height="10.7"/><ellipse cx="291.3" cy="185.8" rx="17.5" ry="7.3"/><rect x="307.0" y="186.2" width="3.1" height="13.8"/><ellipse cx="308.5" cy="181.8" rx="14.3" ry="9.4"/><rect x="325.0" y="183.1" width="3.3" height="16.9"/><ellipse cx="326.7" cy="177.7" rx="15.6" ry="11.5"/><rect x="340.2" y="183.1" width="3.7" height="16.9"/><ellipse cx="342.1" cy="177.7" rx="17.3" ry="11.5"/><rect x="355.0" y="190.8" width="3.9" height="9.2"/><ellipse cx="356.9" cy="187.9" rx="18.5" ry="6.2"/><rect x="370.8" y="186.9" width="3.3" height="13.1"/><ellipse cx="372.5" cy="182.7" rx="15.3" ry="8.9"/><rect x="388.7" y="184.7" width="3.3" height="15.3"/><ellipse cx="390.4" cy="179.8" rx="15.5" ry="10.4"/><rect x="401.5" y="182.5" width="4.2" height="17.5"/><ellipse cx="403.6" cy="176.9" rx="19.6" ry="11.9"/><rect x="414.5" y="186.1" width="3.9" height="13.9"/><ellipse cx="416.4" cy="181.6" rx="18.0" ry="9.5"/><rect x="430.3" y="184.7" width="4.2" height="15.3"/><ellipse cx="432.4" cy="179.8" rx="19.9" ry="10.4"/><rect x="448.4" y="187.6" width="3.1" height="12.4"/><ellipse cx="449.9" cy="183.6" rx="14.8" ry="8.5"/><rect x="463.1" y="189.6" width="3.0" height="10.4"/><ellipse cx="464.6" cy="186.3" rx="14.2" ry="7.0"/><rect x="477.2" y="183.7" width="3.6" height="16.3"/><ellipse cx="479.0" cy="178.5" rx="17.0" ry="11.1"/><rect x="496.4" y="183.0" width="4.0" height="17.0"/><ellipse cx="498.4" cy="177.6" rx="18.9" ry="11.5"/><rect x="509.9" y="183.0" width="3.0" height="17.0"/><ellipse cx="511.4" cy="177.6" rx="14.1" ry="11.6"/><rect x="528.6" y="183.7" width="3.8" height="16.3"/><ellipse cx="530.5" cy="178.5" rx="17.9" ry="11.1"/><rect x="545.0" y="190.3" width="3.0" height="9.7"/><ellipse cx="546.5" cy="187.2" rx="14.0" ry="6.6"/><rect x="562.6" y="188.9" width="3.6" height="11.1"/><ellipse cx="564.4" cy="185.3" rx="17.0" ry="7.6"/><rect x="577.6" y="189.5" width="3.3" height="10.5"/><ellipse cx="579.2" cy="186.2" rx="15.4" ry="7.1"/><rect x="596.2" y="186.8" width="3.4" height="13.2"/><ellipse cx="597.9" cy="182.5" rx="16.1" ry="9.0"/><rect x="612.8" y="186.2" width="3.6" height="13.8"/><ellipse cx="614.6" cy="181.8" rx="16.9" ry="9.4"/><rect x="629.0" y="182.6" width="3.9" height="17.4"/><ellipse cx="631.0" cy="177.1" rx="18.5" ry="11.8"/><rect x="643.9" y="188.2" width="3.1" height="11.8"/><ellipse cx="645.5" cy="184.4" rx="14.7" ry="8.0"/><rect x="659.2" y="190.7" width="3.9" height="9.3"/><ellipse cx="661.1" cy="187.7" rx="18.4" ry="6.3"/><rect x="676.4" y="187.3" width="4.1" height="12.7"/><ellipse cx="678.5" cy="183.2" rx="19.4" ry="8.6"/><rect x="691.8" y="186.0" width="4.2" height="14.0"/><ellipse cx="693.9" cy="181.5" rx="19.7" ry="9.5"/><rect x="709.4" y="185.7" width="3.4" height="14.3"/><ellipse cx="711.1" cy="181.1" rx="15.9" ry="9.7"/><rect x="730.5" y="184.5" width="3.3" height="15.5"/><ellipse cx="732.1" cy="179.5" rx="15.5" ry="10.6"/><rect x="745.9" y="185.9" width="3.6" height="14.1"/><ellipse cx="747.7" cy="181.3" rx="16.9" ry="9.6"/><rect x="762.9" y="189.3" width="3.7" height="10.7"/><ellipse cx="764.7" cy="185.9" rx="17.3" ry="7.3"/><rect x="781.5" y="184.4" width="3.5" height="15.6"/><ellipse cx="783.2" cy="179.4" rx="16.5" ry="10.6"/><rect x="797.7" y="186.6" width="3.6" height="13.4"/><ellipse cx="799.6" cy="182.3" rx="17.0" ry="9.1"/><rect x="814.5" y="190.8" width="3.2" height="9.2"/><ellipse cx="816.2" cy="187.9" rx="15.2" ry="6.2"/></g><g fill="#2D4254"><rect x="-11.3" y="193.7" width="2.6" height="8.3"/><ellipse cx="-10.0" cy="191.1" rx="12.4" ry="5.6"/><rect x="3.6" y="197.1" width="2.3" height="4.9"/><ellipse cx="4.7" cy="195.6" rx="10.9" ry="3.3"/><rect x="15.6" y="195.3" width="2.0" height="6.7"/><ellipse cx="16.6" cy="193.2" rx="8.9" ry="4.5"/><rect x="26.0" y="195.7" width="2.0" height="6.3"/><ellipse cx="27.0" cy="193.6" rx="9.3" ry="4.3"/><rect x="38.1" y="197.4" width="2.0" height="4.6"/><ellipse cx="39.1" cy="195.9" rx="8.8" ry="3.2"/><rect x="51.5" y="195.8" width="2.3" height="6.2"/><ellipse cx="52.7" cy="193.8" rx="10.6" ry="4.2"/><rect x="65.4" y="196.0" width="2.0" height="6.0"/><ellipse cx="66.4" cy="194.1" rx="8.6" ry="4.1"/><rect x="79.3" y="195.1" width="2.4" height="6.9"/><ellipse cx="80.5" cy="192.9" rx="11.2" ry="4.7"/><rect x="92.5" y="193.5" width="2.1" height="8.5"/><ellipse cx="93.6" cy="190.8" rx="9.9" ry="5.7"/><rect x="106.3" y="196.0" width="2.3" height="6.0"/><ellipse cx="107.5" cy="194.1" rx="10.8" ry="4.1"/><rect x="119.8" y="196.2" width="2.0" height="5.8"/><ellipse cx="120.8" cy="194.3" rx="8.8" ry="3.9"/><rect x="131.8" y="194.6" width="2.3" height="7.4"/><ellipse cx="132.9" cy="192.2" rx="10.9" ry="5.1"/><rect x="143.9" y="194.9" width="2.0" height="7.1"/><ellipse cx="144.9" cy="192.6" rx="9.2" ry="4.8"/><rect x="154.0" y="196.2" width="2.5" height="5.8"/><ellipse cx="155.3" cy="194.3" rx="11.8" ry="4.0"/><rect x="164.7" y="197.0" width="2.0" height="5.0"/><ellipse cx="165.7" cy="195.4" rx="8.8" ry="3.4"/><rect x="174.1" y="196.4" width="2.3" height="5.6"/><ellipse cx="175.2" cy="194.5" rx="10.8" ry="3.8"/><rect x="188.4" y="196.1" width="2.1" height="5.9"/><ellipse cx="189.5" cy="194.3" rx="10.0" ry="4.0"/><rect x="199.3" y="196.2" width="2.5" height="5.8"/><ellipse cx="200.5" cy="194.4" rx="11.7" ry="3.9"/><rect x="212.1" y="196.4" width="2.0" height="5.6"/><ellipse cx="213.1" cy="194.6" rx="8.8" ry="3.8"/><rect x="225.9" y="194.6" width="2.5" height="7.4"/><ellipse cx="227.2" cy="192.2" rx="11.9" ry="5.0"/><rect x="236.6" y="195.3" width="2.6" height="6.7"/><ellipse cx="237.9" cy="193.1" rx="12.3" ry="4.6"/><rect x="249.8" y="193.7" width="2.0" height="8.3"/><ellipse cx="250.8" cy="191.0" rx="9.1" ry="5.7"/><rect x="265.0" y="197.2" width="2.2" height="4.8"/><ellipse cx="266.1" cy="195.7" rx="10.1" ry="3.2"/><rect x="274.2" y="194.2" width="2.4" height="7.8"/><ellipse cx="275.4" cy="191.7" rx="11.3" ry="5.3"/><rect x="289.4" y="194.2" width="2.6" height="7.8"/><ellipse cx="290.7" cy="191.7" rx="12.4" ry="5.3"/><rect x="302.0" y="193.5" width="2.5" height="8.5"/><ellipse cx="303.2" cy="190.8" rx="11.5" ry="5.8"/><rect x="313.5" y="193.5" width="2.1" height="8.5"/><ellipse cx="314.6" cy="190.8" rx="10.0" ry="5.8"/><rect x="323.9" y="197.2" width="2.2" height="4.8"/><ellipse cx="325.0" cy="195.6" rx="10.4" ry="3.3"/><rect x="334.2" y="193.7" width="2.6" height="8.3"/><ellipse cx="335.5" cy="191.0" rx="12.4" ry="5.6"/><rect x="344.9" y="197.0" width="2.3" height="5.0"/><ellipse cx="346.1" cy="195.5" rx="10.6" ry="3.4"/><rect x="355.1" y="195.3" width="2.5" height="6.7"/><ellipse cx="356.3" cy="193.1" rx="11.8" ry="4.6"/><rect x="365.8" y="195.8" width="2.6" height="6.2"/><ellipse cx="367.1" cy="193.8" rx="12.2" ry="4.2"/><rect x="377.8" y="196.1" width="2.6" height="5.9"/><ellipse cx="379.1" cy="194.2" rx="12.1" ry="4.0"/><rect x="392.2" y="193.9" width="2.4" height="8.1"/><ellipse cx="393.4" cy="191.2" rx="11.3" ry="5.5"/><rect x="403.9" y="194.7" width="2.5" height="7.3"/><ellipse cx="405.2" cy="192.3" rx="11.9" ry="5.0"/><rect x="417.3" y="196.5" width="2.1" height="5.5"/><ellipse cx="418.3" cy="194.7" rx="9.6" ry="3.7"/><rect x="429.0" y="194.4" width="2.3" height="7.6"/><ellipse cx="430.1" cy="191.9" rx="10.7" ry="5.2"/><rect x="441.7" y="194.1" width="2.0" height="7.9"/><ellipse cx="442.7" cy="191.6" rx="8.9" ry="5.4"/><rect x="454.7" y="196.1" width="2.3" height="5.9"/><ellipse cx="455.9" cy="194.2" rx="10.7" ry="4.0"/><rect x="468.9" y="196.5" width="2.6" height="5.5"/><ellipse cx="470.2" cy="194.7" rx="12.4" ry="3.8"/><rect x="478.8" y="195.2" width="2.3" height="6.8"/><ellipse cx="480.0" cy="193.0" rx="10.7" ry="4.6"/><rect x="489.5" y="195.2" width="2.2" height="6.8"/><ellipse cx="490.7" cy="193.0" rx="10.4" ry="4.6"/><rect x="501.7" y="194.6" width="2.0" height="7.4"/><ellipse cx="502.7" cy="192.2" rx="8.4" ry="5.1"/><rect x="513.2" y="194.3" width="2.0" height="7.7"/><ellipse cx="514.2" cy="191.8" rx="9.0" ry="5.2"/><rect x="527.6" y="196.6" width="2.4" height="5.4"/><ellipse cx="528.8" cy="194.9" rx="11.3" ry="3.6"/><rect x="538.0" y="195.7" width="2.2" height="6.3"/><ellipse cx="539.1" cy="193.6" rx="10.2" ry="4.3"/><rect x="547.7" y="194.6" width="2.2" height="7.4"/><ellipse cx="548.9" cy="192.3" rx="10.4" ry="5.0"/><rect x="561.2" y="195.3" width="2.3" height="6.7"/><ellipse cx="562.3" cy="193.1" rx="10.7" ry="4.6"/><rect x="573.5" y="196.3" width="2.6" height="5.7"/><ellipse cx="574.8" cy="194.4" rx="12.2" ry="3.9"/><rect x="583.3" y="193.9" width="2.6" height="8.1"/><ellipse cx="584.6" cy="191.3" rx="12.0" ry="5.5"/><rect x="595.7" y="194.3" width="2.4" height="7.7"/><ellipse cx="596.9" cy="191.9" rx="11.2" ry="5.2"/><rect x="608.8" y="196.3" width="2.1" height="5.7"/><ellipse cx="609.9" cy="194.5" rx="9.7" ry="3.9"/><rect x="619.9" y="196.2" width="2.7" height="5.8"/><ellipse cx="621.3" cy="194.4" rx="12.4" ry="3.9"/><rect x="631.5" y="195.9" width="2.2" height="6.1"/><ellipse cx="632.6" cy="193.9" rx="10.2" ry="4.1"/><rect x="645.7" y="195.5" width="2.3" height="6.5"/><ellipse cx="646.9" cy="193.5" rx="10.7" ry="4.4"/><rect x="656.7" y="196.3" width="2.0" height="5.7"/><ellipse cx="657.7" cy="194.5" rx="8.8" ry="3.8"/><rect x="667.0" y="196.4" width="2.6" height="5.6"/><ellipse cx="668.3" cy="194.6" rx="12.0" ry="3.8"/><rect x="679.5" y="197.0" width="2.2" height="5.0"/><ellipse cx="680.6" cy="195.4" rx="10.3" ry="3.4"/><rect x="689.5" y="195.2" width="2.2" height="6.8"/><ellipse cx="690.6" cy="193.0" rx="10.3" ry="4.6"/><rect x="703.8" y="196.4" width="2.6" height="5.6"/><ellipse cx="705.1" cy="194.6" rx="12.0" ry="3.8"/><rect x="714.7" y="193.5" width="2.4" height="8.5"/><ellipse cx="715.9" cy="190.8" rx="11.1" ry="5.8"/><rect x="724.4" y="194.2" width="2.0" height="7.8"/><ellipse cx="725.4" cy="191.7" rx="9.6" ry="5.3"/><rect x="735.6" y="196.9" width="2.5" height="5.1"/><ellipse cx="736.9" cy="195.2" rx="11.9" ry="3.5"/><rect x="745.6" y="194.5" width="2.1" height="7.5"/><ellipse cx="746.7" cy="192.1" rx="10.1" ry="5.1"/><rect x="759.1" y="196.3" width="2.0" height="5.7"/><ellipse cx="760.1" cy="194.5" rx="8.7" ry="3.9"/><rect x="774.0" y="194.8" width="2.0" height="7.2"/><ellipse cx="775.0" cy="192.5" rx="9.1" ry="4.9"/><rect x="789.2" y="193.8" width="2.0" height="8.2"/><ellipse cx="790.2" cy="191.2" rx="9.2" ry="5.6"/><rect x="798.6" y="195.0" width="2.0" height="7.0"/><ellipse cx="799.6" cy="192.8" rx="9.0" ry="4.8"/><rect x="812.1" y="195.6" width="2.4" height="6.4"/><ellipse cx="813.3" cy="193.5" rx="11.4" ry="4.4"/></g><defs><radialGradient id="gloakdp"><stop offset="0" stop-color="#6F7D87" stop-opacity="0.35"/><stop offset="0.55" stop-color="#6F7D87" stop-opacity="0.18"/><stop offset="1" stop-color="#6F7D87" stop-opacity="0"/></radialGradient></defs><ellipse cx="400" cy="99.13793103448276" rx="154.6551724137931" ry="141.20689655172413" fill="url(#gloakdp)"/><rect x="0" y="200" width="800" height="130" fill="#503F2E"/><rect x="0" y="251.8" width="800" height="78.2" fill="#413225"/><ellipse cx="323" cy="232" rx="2.2" ry="1.6" fill="#A88462" fill-opacity="0.3"/><ellipse cx="199" cy="298" rx="2.5" ry="1.8" fill="#5E4229" fill-opacity="0.3"/><ellipse cx="306" cy="289" rx="3.3" ry="2.4" fill="#5E4229" fill-opacity="0.3"/><ellipse cx="751" cy="266" rx="3.0" ry="2.1" fill="#A88462" fill-opacity="0.3"/><ellipse cx="491" cy="234" rx="4.5" ry="3.2" fill="#5E4229" fill-opacity="0.3"/><ellipse cx="299" cy="254" rx="3.8" ry="2.7" fill="#5E4229" fill-opacity="0.3"/><ellipse cx="122" cy="286" rx="4.3" ry="3.1" fill="#A88462" fill-opacity="0.3"/><ellipse cx="271" cy="320" rx="3.3" ry="2.4" fill="#5E4229" fill-opacity="0.3"/><ellipse cx="620" cy="263" rx="2.9" ry="2.1" fill="#5E4229" fill-opacity="0.3"/><ellipse cx="216" cy="209" rx="2.3" ry="1.6" fill="#A88462" fill-opacity="0.3"/><ellipse cx="792" cy="271" rx="3.1" ry="2.2" fill="#5E4229" fill-opacity="0.3"/><ellipse cx="720" cy="279" rx="4.7" ry="3.3" fill="#5E4229" fill-opacity="0.3"/><ellipse cx="286" cy="233" rx="4.5" ry="3.2" fill="#A88462" fill-opacity="0.3"/><ellipse cx="129" cy="301" rx="3.5" ry="2.5" fill="#5E4229" fill-opacity="0.3"/><ellipse cx="786" cy="319" rx="3.7" ry="2.7" fill="#5E4229" fill-opacity="0.3"/><ellipse cx="30" cy="211" rx="3.1" ry="2.2" fill="#A88462" fill-opacity="0.3"/><ellipse cx="656" cy="218" rx="3.0" ry="2.1" fill="#5E4229" fill-opacity="0.3"/><ellipse cx="69" cy="245" rx="1.7" ry="1.2" fill="#5E4229" fill-opacity="0.3"/><ellipse cx="264" cy="270" rx="2.3" ry="1.6" fill="#A88462" fill-opacity="0.3"/><ellipse cx="630" cy="215" rx="2.3" ry="1.7" fill="#5E4229" fill-opacity="0.3"/><ellipse cx="206" cy="256" rx="4.0" ry="2.9" fill="#5E4229" fill-opacity="0.3"/><ellipse cx="283" cy="290" rx="4.5" ry="3.2" fill="#A88462" fill-opacity="0.3"/><ellipse cx="105" cy="310" rx="3.5" ry="2.5" fill="#5E4229" fill-opacity="0.3"/><ellipse cx="598" cy="280" rx="2.9" ry="2.1" fill="#5E4229" fill-opacity="0.3"/><ellipse cx="77" cy="225" rx="2.2" ry="1.6" fill="#A88462" fill-opacity="0.3"/><ellipse cx="142" cy="225" rx="2.3" ry="1.7" fill="#5E4229" fill-opacity="0.3"/><ellipse cx="449" cy="299" rx="4.1" ry="3.0" fill="#5E4229" fill-opacity="0.3"/><ellipse cx="677" cy="222" rx="4.2" ry="3.0" fill="#A88462" fill-opacity="0.3"/><ellipse cx="149" cy="217" rx="2.6" ry="1.8" fill="#5E4229" fill-opacity="0.3"/><ellipse cx="469" cy="214" rx="2.3" ry="1.7" fill="#5E4229" fill-opacity="0.3"/><ellipse cx="319" cy="305" rx="2.9" ry="2.1" fill="#A88462" fill-opacity="0.3"/><ellipse cx="331" cy="252" rx="2.0" ry="1.4" fill="#5E4229" fill-opacity="0.3"/><ellipse cx="704" cy="317" rx="3.9" ry="2.8" fill="#5E4229" fill-opacity="0.3"/><ellipse cx="319" cy="260" rx="2.6" ry="1.9" fill="#A88462" fill-opacity="0.3"/><ellipse cx="523" cy="285" rx="2.6" ry="1.9" fill="#5E4229" fill-opacity="0.3"/><ellipse cx="699" cy="293" rx="2.4" ry="1.7" fill="#5E4229" fill-opacity="0.3"/><ellipse cx="647" cy="288" rx="2.4" ry="1.7" fill="#A88462" fill-opacity="0.3"/><ellipse cx="237" cy="297" rx="1.9" ry="1.4" fill="#5E4229" fill-opacity="0.3"/><ellipse cx="350" cy="322" rx="2.5" ry="1.8" fill="#5E4229" fill-opacity="0.3"/><ellipse cx="403" cy="315" rx="4.4" ry="3.1" fill="#A88462" fill-opacity="0.3"/><ellipse cx="631" cy="271" rx="4.5" ry="3.2" fill="#5E4229" fill-opacity="0.3"/><ellipse cx="205" cy="312" rx="2.9" ry="2.1" fill="#5E4229" fill-opacity="0.3"/><ellipse cx="527" cy="280" rx="2.5" ry="1.8" fill="#A88462" fill-opacity="0.3"/><ellipse cx="543" cy="279" rx="4.7" ry="3.4" fill="#5E4229" fill-opacity="0.3"/><ellipse cx="533" cy="260" rx="2.8" ry="2.0" fill="#5E4229" fill-opacity="0.3"/><ellipse cx="710" cy="249" rx="3.7" ry="2.7" fill="#A88462" fill-opacity="0.3"/><ellipse cx="555" cy="322" rx="2.3" ry="1.6" fill="#5E4229" fill-opacity="0.3"/><ellipse cx="532" cy="228" rx="3.7" ry="2.6" fill="#5E4229" fill-opacity="0.3"/><ellipse cx="526" cy="296" rx="4.3" ry="3.1" fill="#A88462" fill-opacity="0.3"/><ellipse cx="185" cy="310" rx="2.7" ry="2.0" fill="#5E4229" fill-opacity="0.3"/><ellipse cx="320" cy="221" rx="3.3" ry="2.4" fill="#5E4229" fill-opacity="0.3"/><ellipse cx="1" cy="245" rx="3.8" ry="2.7" fill="#A88462" fill-opacity="0.3"/><ellipse cx="598" cy="228" rx="4.1" ry="2.9" fill="#5E4229" fill-opacity="0.3"/><ellipse cx="355" cy="232" rx="4.0" ry="2.8" fill="#5E4229" fill-opacity="0.3"/><ellipse cx="591" cy="263" rx="3.3" ry="2.4" fill="#A88462" fill-opacity="0.3"/><ellipse cx="496" cy="283" rx="4.0" ry="2.9" fill="#5E4229" fill-opacity="0.3"/><ellipse cx="615" cy="232" rx="1.7" ry="1.2" fill="#5E4229" fill-opacity="0.3"/><ellipse cx="84" cy="244" rx="3.5" ry="2.5" fill="#A88462" fill-opacity="0.3"/><ellipse cx="769" cy="257" rx="2.8" ry="2.0" fill="#5E4229" fill-opacity="0.3"/><ellipse cx="446" cy="320" rx="3.5" ry="2.5" fill="#5E4229" fill-opacity="0.3"/><rect x="0" y="198" width="800" height="8" fill="#30432C"/><defs><g id="gr-r11"><g transform="translate(0.000000,718.000000) scale(0.100000,-0.100000)"
fill="currentColor" stroke="none">
<path d="M6498 7064 c-53 -19 -94 -41 -158 -84 -70 -47 -201 -113 -260 -129
-25 -7 -74 -21 -110 -31 -36 -10 -83 -23 -105 -28 -22 -6 -65 -18 -95 -28
-103 -32 -155 -37 -450 -44 -162 -4 -313 -11 -335 -17 -74 -20 -163 -51 -206
-74 -105 -54 -275 -57 -459 -9 -257 68 -740 15 -740 -81 0 -32 36 -59 78 -59
20 0 62 9 92 20 60 22 294 29 354 11 17 -5 51 -15 76 -21 25 -6 73 -20 106
-31 34 -10 68 -19 77 -19 19 0 38 -23 29 -37 -22 -33 -286 -146 -387 -165 -27
-5 -77 -14 -110 -20 -238 -43 -906 26 -1072 110 -23 12 -58 28 -80 36 -21 8
-62 23 -90 35 -169 67 -200 74 -223 45 -10 -11 -11 -23 -4 -42 9 -25 22 -34
114 -76 55 -25 30 -41 -75 -48 -55 -4 -129 -12 -165 -18 -36 -6 -101 -14 -145
-18 -70 -6 -81 -10 -91 -30 -6 -13 -24 -37 -40 -53 -59 -61 -4 -110 78 -68 24
12 61 26 83 31 22 5 63 14 90 20 64 14 461 14 540 0 173 -30 200 -47 135 -84
-32 -18 -38 -43 -16 -73 15 -20 6 -21 151 16 78 21 182 31 295 30 286 -2 566
-13 574 -21 45 -45 -363 -312 -539 -352 -22 -5 -58 -14 -80 -19 -184 -48 -658
-68 -915 -39 -223 25 -709 14 -835 -19 -22 -5 -59 -15 -82 -21 -41 -10 -66
-16 -163 -41 -25 -6 -70 -13 -100 -16 -61 -6 -80 -16 -80 -44 0 -58 76 -71
228 -40 28 6 75 16 102 21 28 6 74 15 103 21 88 18 148 22 160 10 13 -13 -36
-79 -69 -91 -34 -13 -51 -53 -36 -85 18 -39 48 -31 139 34 126 90 246 123 443
123 170 0 290 -21 290 -51 0 -5 -29 -34 -65 -66 -68 -60 -84 -89 -65 -124 16
-30 50 -26 101 12 65 48 165 107 202 119 104 32 200 49 337 58 69 5 145 12
168 15 58 10 67 -2 40 -52 -19 -35 -20 -45 -10 -67 17 -38 47 -33 124 19 37
25 72 45 78 45 6 0 33 11 60 25 27 13 79 36 117 49 121 43 154 56 205 82 50
25 52 25 89 9 53 -24 79 -14 134 52 26 32 81 86 123 121 41 35 89 78 106 96
125 131 266 227 323 219 43 -6 43 -6 110 67 72 77 101 95 215 136 40 14 92 33
115 41 62 22 81 12 56 -30 -11 -17 -26 -43 -34 -57 -8 -14 -26 -40 -41 -58
-59 -70 -5 -137 66 -81 14 11 26 25 26 31 0 39 178 200 249 225 34 12 495 22
506 11 3 -3 -29 -41 -72 -85 -79 -82 -156 -130 -261 -163 -52 -16 -66 -32 -58
-65 9 -36 39 -49 81 -34 43 16 63 3 46 -29 -25 -47 -6 -112 33 -112 23 0 276
193 276 210 0 18 183 189 262 246 77 54 103 66 259 116 338 109 334 108 479
119 63 4 149 13 190 19 111 16 143 16 147 3 12 -33 -240 -235 -337 -272 -19
-7 -55 -21 -80 -31 -47 -20 -145 -51 -217 -69 -24 -6 -62 -16 -85 -22 -48 -12
-135 -40 -188 -60 -57 -23 -179 -100 -275 -176 -100 -79 -212 -138 -325 -172
-41 -12 -89 -27 -106 -32 -17 -5 -65 -9 -108 -9 -64 0 -85 -5 -129 -27 -29
-15 -79 -31 -112 -35 -97 -14 -213 -28 -315 -38 -52 -5 -129 -14 -170 -20 -41
-6 -109 -13 -150 -16 -99 -7 -122 -29 -86 -80 13 -17 31 -19 227 -24 136 -3
214 -9 216 -16 4 -11 -51 -45 -112 -67 -185 -69 -185 -69 -185 -98 0 -36 36
-60 80 -53 40 6 40 6 40 -25 0 -91 50 -95 129 -11 124 132 245 198 421 231 25
5 70 13 100 19 101 20 185 28 194 20 9 -9 -69 -147 -156 -277 -97 -145 -266
-291 -436 -377 -321 -162 -640 -177 -1364 -65 -95 15 -548 16 -613 1 -141 -31
-125 -25 -367 -123 -307 -124 -346 -130 -918 -139 -256 -4 -496 -13 -535 -18
-131 -20 -150 -24 -162 -34 -33 -27 10 -96 50 -83 76 25 490 46 510 26 8 -8 3
-19 -13 -36 -54 -58 4 -104 81 -64 97 49 160 60 409 70 113 4 240 11 283 14
78 7 78 7 72 -28 -18 -93 36 -99 136 -16 173 144 259 191 424 231 145 35 378
48 447 25 55 -19 54 -25 -7 -56 -214 -112 -356 -272 -505 -571 -45 -89 -65
-116 -137 -188 -76 -74 -85 -86 -80 -111 18 -87 -303 -316 -508 -363 -98 -23
-145 -30 -215 -35 -41 -3 -81 -9 -87 -15 -32 -27 1 -108 44 -108 9 0 31 -5 48
-11 27 -10 38 -8 90 18 33 16 80 35 105 42 189 53 324 112 455 201 129 87 279
259 384 440 24 41 62 107 85 145 158 274 344 409 611 446 264 37 340 16 240
-65 -41 -34 -135 -146 -135 -161 0 -4 -22 -39 -50 -78 -51 -73 -58 -94 -40
-128 24 -44 80 -13 116 66 22 50 213 238 257 255 18 6 48 19 67 27 57 26 154
44 312 59 77 8 82 -7 30 -89 -73 -114 -123 -202 -129 -227 -12 -50 -126 -267
-180 -341 -97 -137 -283 -256 -468 -301 -102 -24 -148 -31 -255 -35 -124 -5
-140 -11 -140 -54 0 -53 29 -69 124 -69 118 0 118 1 14 -146 -72 -102 -151
-178 -231 -226 -119 -71 -126 -82 -87 -145 31 -51 55 -44 167 50 131 109 144
122 257 262 110 135 174 192 261 234 33 16 119 57 190 91 72 34 147 76 167 92
61 48 92 26 70 -51 -57 -198 -68 -222 -164 -349 -58 -77 -2 -138 71 -76 44 37
116 132 139 185 36 80 61 143 71 179 5 19 19 65 30 101 12 37 21 77 21 90 0
12 4 36 9 53 65 217 102 310 174 431 130 220 245 319 552 472 104 53 216 113
248 135 88 60 105 47 77 -62 -28 -109 -21 -150 24 -150 49 0 68 36 146 269 67
204 93 261 157 344 46 59 62 67 83 42 31 -38 84 -7 93 55 23 146 89 258 212
359 91 75 282 158 420 183 28 5 73 13 100 19 28 6 80 13 118 16 79 6 82 0 37
-70 -17 -26 -41 -69 -54 -95 -52 -102 -164 -186 -307 -232 -112 -36 -138 -57
-123 -98 9 -25 14 -27 58 -25 27 2 59 -3 76 -12 43 -22 59 -19 125 26 83 56
196 112 205 102 9 -8 17 -89 26 -255 7 -119 -8 -139 -169 -236 -131 -78 -165
-92 -517 -203 -233 -74 -420 -185 -600 -357 -38 -36 -129 -94 -190 -121 -30
-13 -74 -32 -98 -42 -23 -10 -51 -19 -61 -19 -27 0 -44 -26 -37 -55 8 -33 46
-51 74 -36 26 14 122 15 122 1 0 -5 -27 -65 -59 -132 -32 -68 -74 -156 -92
-195 -41 -90 -111 -163 -200 -208 -86 -44 -97 -57 -80 -98 27 -66 25 -78 -29
-151 -57 -78 -67 -105 -50 -135 27 -51 69 -24 245 154 123 125 201 236 311
444 36 67 56 82 82 58 38 -35 82 -13 96 48 4 17 10 46 15 65 4 20 24 67 44
105 115 219 321 355 675 444 23 6 61 16 85 22 23 6 56 14 72 19 110 30 127 22
100 -51 -10 -24 -28 -75 -41 -112 -35 -99 -100 -203 -173 -276 -72 -72 -78
-112 -18 -119 41 -5 42 -22 6 -93 -177 -352 -589 -632 -1126 -768 -24 -6 -61
-15 -83 -21 -323 -81 -441 -123 -553 -199 -99 -67 -215 -184 -299 -302 -105
-149 -210 -253 -293 -292 -86 -41 -102 -58 -89 -95 15 -42 45 -38 151 18 127
66 123 70 123 -95 0 -146 7 -175 44 -175 44 0 56 28 56 130 0 52 4 107 9 124
5 17 14 49 20 71 28 113 46 157 90 224 103 155 249 271 341 271 46 0 84 17
148 66 39 30 87 48 197 75 22 6 54 15 71 20 40 12 71 11 109 -2 27 -10 38 -8
82 15 103 51 259 97 311 90 46 -6 49 -4 117 50 105 84 154 106 205 93 41 -11
41 -11 103 52 34 35 114 103 177 151 121 91 228 192 319 298 29 34 58 61 63
60 24 -8 38 -87 38 -214 0 -132 0 -132 -35 -180 -66 -92 -71 -108 -53 -159 19
-50 12 -68 -52 -149 -66 -82 -316 -250 -570 -382 -47 -24 -123 -67 -170 -94
-124 -73 -547 -280 -572 -280 -15 0 -177 -96 -205 -123 -39 -35 -24 -107 21
-107 13 0 59 26 102 57 114 82 167 99 199 63 28 -31 57 -24 125 30 67 54 239
160 259 160 6 0 38 14 71 30 85 43 102 32 64 -42 -48 -92 -71 -223 -83 -468
-11 -212 -41 -307 -125 -400 -65 -72 -23 -147 52 -94 17 12 35 14 70 9 68 -9
75 0 103 140 16 79 29 199 38 345 5 74 13 153 19 175 6 22 15 58 20 80 19 87
110 241 188 319 49 49 64 55 84 31 23 -27 57 -18 92 26 76 95 108 126 203 197
153 114 268 248 323 375 20 47 34 36 67 -58 46 -128 49 -269 10 -426 -20 -81
68 -93 100 -14 29 73 38 302 16 405 -6 30 -16 78 -22 105 -5 28 -14 73 -20
100 -25 121 -24 139 13 180 52 61 183 152 299 211 59 29 129 67 155 84 93 59
108 38 65 -88 -17 -49 -31 -100 -31 -113 -1 -66 -75 -214 -160 -317 -62 -76
-67 -90 -50 -123 18 -33 55 -23 122 36 35 30 67 54 73 52 39 -13 37 -419 -3
-542 -80 -249 -392 -572 -612 -635 -62 -18 -233 -114 -254 -142 -47 -65 14
-110 85 -64 21 14 43 26 49 26 6 0 28 9 49 20 100 51 139 36 103 -38 -18 -36
-49 -133 -72 -222 -6 -25 -20 -73 -31 -106 -25 -80 -24 -87 11 -127 29 -34 30
-37 30 -141 0 -113 13 -146 58 -146 10 0 29 -11 42 -25 28 -30 60 -32 83 -7
22 24 22 30 -9 120 -112 324 -46 569 224 840 105 105 115 105 124 -3 4 -44 12
-109 18 -145 6 -36 14 -97 18 -136 7 -75 22 -104 53 -104 10 0 35 -20 56 -45
40 -49 69 -57 96 -27 18 20 22 48 8 56 -13 8 -59 110 -87 192 -26 78 -34 263
-15 328 5 17 15 51 22 76 13 45 77 183 108 229 18 28 23 42 73 181 22 60 40
95 49 95 20 0 83 -124 114 -225 14 -47 30 -99 36 -116 5 -17 9 -54 9 -83 0
-85 40 -120 84 -72 34 38 4 326 -46 441 -9 19 -25 59 -37 88 -11 28 -30 73
-41 100 -20 49 -51 146 -70 222 -6 25 -16 59 -21 76 -12 39 -12 288 0 328 5
17 20 65 32 106 46 153 101 241 230 372 98 98 127 110 121 48 -14 -140 -2
-287 32 -400 10 -30 21 -69 27 -86 5 -17 9 -60 9 -95 0 -70 10 -92 50 -112 66
-33 58 -230 -15 -364 -44 -79 -41 -123 8 -123 64 0 95 58 167 306 17 59 3 194
-33 309 -8 28 -23 75 -33 105 -36 118 -54 304 -35 370 5 19 17 61 27 94 20 69
43 96 82 96 31 0 62 27 62 54 0 58 109 215 240 346 47 47 118 124 158 172 71
86 93 101 109 76 14 -22 70 -182 104 -294 12 -40 12 -309 0 -348 -5 -17 -15
-51 -22 -76 -23 -84 -92 -206 -151 -270 -13 -14 -48 -54 -78 -90 -30 -36 -70
-81 -89 -100 -84 -87 -110 -161 -71 -200 37 -37 83 -13 140 71 51 75 245 272
262 266 28 -9 8 -165 -36 -287 -15 -41 -34 -93 -42 -115 -8 -22 -41 -89 -74
-150 -68 -126 -144 -279 -221 -444 -74 -158 -150 -271 -250 -371 -145 -146
-159 -170 -119 -210 54 -54 148 10 317 217 43 52 56 51 65 -8 3 -24 11 -63 17
-86 6 -24 16 -61 21 -83 6 -22 15 -59 21 -82 54 -216 35 -345 -76 -525 -46
-75 -76 -112 -232 -285 -53 -58 -62 -83 -43 -119 16 -29 52 -23 104 17 57 43
66 39 66 -37 0 -40 10 -92 30 -152 16 -51 32 -105 35 -120 13 -64 65 -91 109
-56 32 25 33 46 1 109 -87 171 -75 353 34 526 81 128 88 139 94 165 28 114 96
58 97 -79 0 -87 40 -121 84 -73 31 34 13 210 -37 366 -67 212 -80 252 -88 285
-4 19 -13 55 -19 80 -47 189 -45 308 8 455 12 32 22 61 22 62 0 2 7 3 15 3 15
0 22 -13 76 -139 13 -30 50 -95 82 -145 31 -49 57 -98 57 -107 0 -46 88 -64
134 -28 41 32 34 65 -30 149 -179 236 -194 412 -58 682 67 135 63 135 154 -2
35 -52 103 -142 150 -200 48 -58 100 -130 116 -160 24 -46 35 -57 70 -68 71
-22 156 -135 189 -250 9 -31 21 -73 26 -92 12 -42 6 -278 -8 -335 -12 -46 -34
-101 -69 -165 -218 -407 -236 -462 -230 -673 6 -241 14 -286 56 -333 32 -35
46 -60 64 -117 10 -33 53 -43 84 -20 39 29 38 51 -6 140 -21 43 -44 98 -51
123 -7 25 -17 59 -22 76 -18 61 -11 190 16 270 30 89 81 194 95 194 13 0 40
-54 40 -80 0 -54 109 -217 227 -337 48 -50 111 -116 138 -147 56 -62 71 -67
111 -33 39 34 28 59 -67 157 -137 143 -226 277 -252 385 -16 65 -20 216 -7
260 6 22 16 57 21 78 19 78 33 123 47 152 25 49 51 178 60 294 4 47 12 86 17
88 32 10 143 -150 170 -245 9 -31 20 -71 26 -88 13 -42 11 -151 -3 -190 -16
-44 1 -84 35 -84 59 0 89 93 92 282 2 131 0 130 70 78 149 -110 255 -272 255
-390 0 -93 51 -128 115 -79 22 18 26 27 21 53 -4 17 -11 51 -15 76 -36 189
-138 338 -351 511 -148 120 -166 139 -350 359 -154 185 -244 280 -338 355 -74
59 -230 261 -284 368 -42 83 -56 120 -89 237 -13 44 -6 316 10 390 12 55 26
139 37 215 9 62 16 62 115 -6 122 -84 180 -140 227 -219 44 -73 66 -83 111
-51 38 27 44 27 75 -10 110 -130 146 -305 94 -455 -25 -74 -17 -114 25 -114
36 0 50 22 106 163 6 15 11 75 11 132 0 143 15 145 115 15 90 -117 125 -211
125 -341 0 -101 7 -121 50 -142 20 -10 32 -37 68 -147 55 -168 62 -184 90
-188 12 -2 39 -23 59 -48 79 -95 149 -25 81 82 -36 57 -62 120 -97 235 -20 64
-14 85 29 119 43 34 48 55 25 99 -34 67 -67 185 -62 225 20 164 45 182 115 79
22 -32 55 -74 74 -93 97 -101 222 -270 273 -370 36 -71 47 -107 77 -245 21
-99 12 -305 -20 -440 -13 -55 -109 -342 -124 -368 -6 -12 -15 -39 -20 -59 -4
-21 -13 -57 -19 -80 -27 -107 -20 -148 25 -148 27 0 48 22 66 70 31 80 37 77
74 -41 15 -48 49 -123 75 -168 47 -80 70 -128 88 -186 8 -28 12 -30 54 -30
130 0 279 -242 279 -455 0 -124 33 -168 84 -111 26 28 12 271 -19 344 -4 10
-2 35 5 57 15 46 9 58 -57 113 -28 23 -77 74 -109 112 -32 39 -69 81 -82 95
-35 37 -142 200 -142 217 0 8 -8 28 -17 46 -35 67 -50 293 -25 382 6 22 15 59
20 83 12 54 20 62 39 37 8 -11 31 -43 51 -71 41 -56 128 -159 178 -212 37 -37
70 -41 108 -11 39 30 32 51 -34 111 -112 104 -200 235 -223 333 -22 98 -51
511 -37 528 11 13 160 -93 233 -165 49 -49 75 -68 94 -68 115 0 310 -293 354
-532 5 -27 14 -72 20 -100 18 -95 30 -191 37 -314 7 -119 17 -154 46 -154 7 0
23 -11 36 -25 28 -30 60 -32 83 -7 22 24 21 36 -3 102 -25 67 -25 79 0 110 27
34 25 71 -7 133 -31 60 -42 104 -53 207 -8 73 -19 133 -38 215 -8 36 -19 67
-55 160 -59 151 -222 332 -437 485 -425 304 -722 616 -793 835 -38 120 -40
389 -1 402 11 4 160 -127 225 -198 42 -45 73 -50 113 -18 38 30 33 56 -21 103
-218 190 -300 323 -333 536 -5 30 -13 73 -19 95 -39 154 -36 169 31 139 224
-100 445 -338 534 -576 94 -253 98 -286 79 -788 -7 -167 1 -211 48 -295 37
-67 117 -51 102 20 -3 16 -10 53 -16 80 -12 56 -12 76 -3 155 8 70 18 81 44
47 25 -31 60 -35 83 -9 22 24 21 36 -3 102 -39 107 -23 238 25 204 458 -327
565 -538 515 -1014 -20 -190 -16 -324 12 -425 15 -52 26 -65 53 -65 34 0 59
34 50 67 -21 77 5 313 35 313 10 0 210 -243 259 -314 33 -48 33 -48 80 -41 46
6 50 4 152 -63 153 -102 227 -192 264 -320 9 -31 20 -71 26 -88 5 -17 9 -110
9 -207 0 -164 2 -179 20 -197 52 -52 125 -4 115 74 -3 28 -10 130 -14 226 -8
175 -14 213 -46 304 -28 81 4 79 117 -10 76 -59 128 -52 128 18 0 40 -117 126
-290 213 -507 254 -697 493 -726 913 -7 86 -11 86 84 15 42 -31 113 -79 157
-106 44 -27 96 -66 116 -88 30 -32 43 -39 74 -39 27 0 61 -13 116 -45 87 -50
96 -52 141 -29 32 17 35 16 144 -17 17 -5 41 -9 54 -9 13 0 37 -4 54 -10 17
-5 53 -15 79 -22 29 -8 76 -34 118 -66 66 -50 73 -53 112 -47 122 18 359 -230
416 -435 7 -25 17 -59 22 -76 5 -17 9 -113 9 -213 0 -193 6 -221 44 -221 42 0
54 27 61 135 7 118 9 258 4 300 -4 29 -3 30 35 27 79 -6 108 75 32 89 -11 2
-31 25 -45 51 -152 277 -419 508 -681 587 -41 12 -89 27 -106 32 -17 5 -41 9
-53 9 -13 0 -51 9 -85 19 -33 11 -81 25 -106 31 -103 26 -219 69 -313 116
-138 70 -317 208 -411 319 -28 32 -80 89 -118 127 -77 78 -79 84 -39 93 54 12
80 66 41 85 -8 5 -49 18 -90 31 -271 82 -488 291 -593 574 -49 129 -60 165
-54 171 6 6 70 -4 157 -26 25 -6 65 -15 90 -20 25 -5 64 -14 88 -19 23 -6 59
-15 80 -20 217 -53 376 -181 552 -446 18 -27 63 -90 99 -139 36 -49 84 -123
106 -165 43 -82 69 -98 106 -65 39 35 -5 150 -156 404 -127 214 -145 246 -145
258 0 18 54 14 105 -8 25 -11 66 -29 93 -41 248 -110 368 -300 492 -779 27
-103 35 -128 63 -185 55 -113 131 -170 170 -127 24 26 21 51 -11 103 -43 70
-92 235 -77 259 4 6 33 -13 67 -42 115 -102 148 -117 181 -80 27 30 20 52 -34
101 -122 110 -170 184 -289 451 -24 52 -49 107 -56 122 -19 37 -18 48 12 79
38 40 27 67 -59 140 -178 153 -297 307 -297 384 0 35 13 32 99 -24 42 -27 110
-65 151 -84 41 -19 107 -49 145 -67 360 -164 564 -431 646 -842 5 -27 13 -69
18 -95 65 -329 260 -638 344 -545 26 28 21 43 -39 122 -66 87 -74 102 -103
200 -12 41 -27 89 -32 106 -11 37 -12 114 -1 114 4 0 40 -29 81 -65 78 -68
190 -131 283 -159 118 -36 216 -112 318 -246 105 -138 332 -350 376 -350 52 0
75 99 29 124 -92 51 -226 174 -286 264 -18 26 -48 65 -66 88 -18 23 -33 49
-33 58 0 24 42 41 68 27 57 -31 142 4 142 59 0 42 -16 48 -140 53 -196 8 -287
30 -431 102 -128 65 -274 207 -328 320 -38 81 -117 269 -126 301 -3 12 -35 70
-71 130 -76 126 -77 140 -14 137 283 -13 499 -134 624 -348 48 -81 75 -97 114
-68 15 11 28 29 30 39 4 28 -154 247 -233 323 -87 84 -74 109 52 97 305 -29
450 -91 626 -270 65 -66 103 -119 203 -286 176 -292 357 -480 561 -584 61 -31
94 -33 116 -8 35 39 26 51 -90 120 -129 78 -226 183 -216 235 5 25 -4 38 -83
116 -49 49 -103 113 -120 142 -47 81 -108 189 -137 239 -76 135 -242 295 -388
376 -38 21 -68 42 -66 47 15 46 279 46 472 -1 148 -36 251 -87 390 -192 127
-96 166 -101 177 -20 3 24 6 25 63 22 33 -1 157 -6 275 -11 118 -4 233 -13
255 -19 140 -39 185 -36 185 14 0 34 41 44 186 44 128 0 144 2 168 21 29 22
34 50 12 68 -11 10 -420 11 -696 2 -43 -1 -222 17 -277 28 -29 6 -74 15 -100
20 -27 4 -88 22 -138 39 -89 29 -107 36 -235 93 -63 28 -148 56 -240 79 -25 6
-61 16 -80 21 -45 13 -490 5 -587 -10 -199 -30 -209 -31 -528 -62 -358 -34
-590 1 -832 125 -200 103 -291 192 -462 451 -118 178 -127 213 -52 201 124
-19 161 -26 199 -35 23 -6 59 -15 80 -20 179 -44 314 -139 447 -315 41 -55 64
-76 80 -76 27 0 55 29 55 57 0 32 -110 190 -189 272 -40 40 -70 79 -68 85 5
15 191 20 240 7 20 -6 56 -16 80 -23 23 -6 74 -28 114 -50 40 -21 84 -38 98
-38 14 0 57 -16 95 -35 78 -39 109 -43 133 -17 37 40 27 52 -111 131 -115 67
-124 77 -117 121 9 53 -3 58 -155 64 -164 7 -367 22 -475 35 -260 33 -252 31
-309 73 -42 30 -72 34 -122 16 -26 -9 -42 -9 -76 1 -24 7 -60 17 -80 22 -150
36 -216 70 -383 192 -200 148 -265 180 -457 228 -21 5 -57 14 -80 20 -24 6
-61 15 -83 20 -92 23 -153 48 -205 87 -53 39 -232 234 -222 243 11 9 303 -8
352 -20 25 -7 65 -16 90 -21 68 -13 119 -26 180 -45 30 -9 87 -26 125 -38 205
-62 334 -155 502 -363 86 -107 259 -264 291 -264 58 0 63 49 12 124 -45 66
-44 76 9 76 42 0 75 27 69 56 -2 10 -40 36 -94 63 -113 57 -152 87 -199 151
-59 80 -58 80 185 80 263 0 333 -28 448 -177 62 -83 130 -8 76 84 -39 67 -14
75 103 37 203 -66 324 -159 427 -326 23 -38 59 -37 88 2 12 17 26 30 32 30 18
0 111 -65 221 -155 224 -184 369 -273 575 -355 100 -40 204 -91 266 -131 67
-43 93 -48 117 -21 22 24 21 40 -4 81 -26 43 -15 55 43 46 23 -3 95 -10 158
-15 107 -8 149 -14 255 -38 96 -21 272 -124 369 -216 64 -60 92 -68 121 -36
35 39 -32 127 -179 235 -73 54 -76 59 -43 77 48 27 373 48 442 28 22 -6 58
-17 80 -23 60 -16 194 -85 241 -123 57 -47 114 -37 114 19 0 19 -47 77 -63 77
-24 1 -82 59 -70 71 17 17 138 3 273 -31 150 -38 260 -46 293 -20 53 42 32 75
-53 83 -30 3 -75 10 -100 16 -25 7 -63 16 -85 22 -22 5 -58 14 -80 20 -22 5
-58 15 -80 20 -22 6 -67 15 -100 21 -79 14 -559 13 -705 -2 -286 -29 -731 -10
-930 40 -25 6 -61 15 -80 20 -118 29 -288 118 -408 214 -102 82 -139 123 -126
136 5 5 101 12 214 15 438 11 526 8 667 -26 69 -17 98 4 88 62 -4 24 -2 40 5
44 100 62 650 69 800 11 120 -47 169 -13 122 84 -16 34 -20 35 -87 42 -39 4
-104 12 -145 18 -41 6 -120 14 -175 18 -145 10 -138 23 64 116 34 16 49 42 35
64 -17 27 -57 26 -146 -6 -78 -28 -103 -38 -240 -93 -150 -60 -225 -83 -333
-100 -381 -61 -744 -69 -930 -20 -22 5 -58 14 -80 19 -22 5 -58 17 -80 27 -22
9 -67 29 -99 44 -100 44 -160 95 -123 105 6 2 30 8 52 14 22 6 65 18 95 28
128 39 391 53 490 25 86 -24 123 -25 153 -1 54 43 37 66 -78 106 -170 58 -441
64 -635 14 -162 -42 -362 -43 -436 -2 -11 6 -40 18 -62 27 -23 8 -61 22 -84
31 -78 31 -140 37 -438 44 -171 4 -313 12 -337 18 -24 7 -61 17 -83 22 -22 6
-57 14 -77 20 -21 5 -56 13 -78 18 -124 29 -274 89 -355 142 -47 31 -117 75
-156 98 -70 42 -70 42 -3105 41 -2528 -1 -3040 -4 -3071 -15z m4273 -742 c110
-99 191 -154 339 -227 175 -87 237 -198 249 -450 6 -140 11 -155 43 -155 35 0
58 29 58 72 0 53 14 75 52 83 40 9 68 32 68 56 0 18 -2 23 -39 117 -35 84 -18
91 92 36 259 -130 354 -289 385 -639 8 -91 14 -105 46 -105 40 0 60 36 73 135
7 57 13 59 74 23 30 -18 75 -41 99 -51 105 -43 176 -81 215 -113 23 -19 51
-34 62 -34 35 0 50 26 69 120 8 36 -17 54 -123 89 -181 59 -256 124 -338 290
-57 117 -55 124 30 110 33 -6 85 -14 115 -18 30 -4 80 -16 110 -25 30 -10 87
-27 125 -39 319 -96 551 -362 695 -797 33 -99 71 -202 85 -230 45 -89 37 -101
-45 -69 -30 12 -118 44 -195 71 -77 27 -180 64 -230 82 -49 17 -104 40 -122
49 -18 9 -42 17 -55 17 -13 0 -48 10 -78 21 -30 12 -118 44 -195 71 -77 27
-170 61 -208 74 -82 29 -316 145 -377 187 -47 33 -138 85 -260 150 -41 22 -91
53 -111 69 -20 15 -42 28 -48 28 -15 0 -203 126 -278 186 -222 179 -421 492
-454 714 -5 30 -11 72 -15 92 -14 83 4 85 87 10z m-2414 -34 c-28 -217 -80
-330 -245 -533 -103 -126 -262 -265 -365 -320 -91 -48 -397 -245 -508 -326
-112 -82 -123 -72 -116 112 11 269 107 439 347 610 101 73 116 73 112 3 -3
-46 0 -56 27 -87 24 -27 31 -44 31 -76 0 -75 38 -104 82 -64 15 13 18 32 18
112 0 217 71 306 355 449 44 22 118 67 165 100 103 73 103 73 97 20z m1542
-539 c24 -35 88 -123 142 -195 159 -215 189 -287 196 -471 5 -130 -3 -160 -75
-295 -86 -162 15 -200 115 -43 47 75 54 72 117 -52 45 -90 46 -96 46 -183 0
-77 3 -93 20 -110 40 -40 100 -4 100 60 0 29 8 48 30 73 39 44 38 52 -10 126
-96 148 -123 236 -136 444 -7 104 4 107 99 31 246 -198 400 -436 440 -679 17
-105 2 -697 -21 -830 -31 -176 -36 -178 -116 -55 -112 172 -192 259 -323 351
-43 31 -127 90 -188 133 -275 194 -439 377 -572 639 -92 183 -145 441 -113
552 11 38 96 297 118 360 6 17 16 49 21 73 16 64 34 126 39 135 8 17 28 -1 71
-64z m-1015 -235 c12 -52 11 -215 -2 -289 -6 -33 -15 -82 -20 -110 -5 -27 -16
-69 -26 -92 -9 -24 -23 -61 -31 -83 -76 -203 -326 -540 -401 -540 -62 0 -146
294 -115 402 6 21 16 57 23 81 18 66 86 196 136 261 65 84 400 418 415 413 6
-2 16 -21 21 -43z m-874 -578 c0 -125 -144 -312 -301 -391 -102 -52 -116 -66
-103 -103 19 -52 120 -23 298 86 58 36 58 36 78 9 22 -30 52 -34 82 -12 31 23
45 18 62 -22 9 -21 34 -75 55 -121 21 -45 39 -91 39 -101 0 -27 -55 -91 -140
-161 -41 -35 -84 -73 -95 -85 -38 -42 -190 -160 -290 -224 -239 -153 -426
-278 -498 -333 -42 -33 -81 -57 -86 -54 -34 21 -59 495 -34 621 71 347 308
628 679 801 261 123 254 120 254 90z"/>
</g></g></defs><g transform="translate(351.0 201.3) scale(0.0506)" opacity="0.45"><use href="#gr-r11" style="color:#59432E"/></g><g transform="translate(351.8 202.0) scale(0.0506)"><use href="#gr-r11" style="color:#372517"/></g><defs><linearGradient id="rf57g" x1="0" y1="0" x2="0" y2="1"><stop offset="0" stop-color="#fff"/><stop offset="0.35" stop-color="#fff" stop-opacity="0.55"/><stop offset="1" stop-color="#fff" stop-opacity="0"/></linearGradient><mask id="rf57" maskUnits="userSpaceOnUse" x="304" y="198" width="193" height="20"><rect x="304" y="200" width="193" height="12" fill="url(#rf57g)"/></mask></defs><g mask="url(#rf57)"><g transform="translate(351.8 202.0) scale(0.0506)"><use href="#gr-r11" style="color:#3A220E"/></g></g><ellipse cx="400" cy="201" rx="61" ry="5" fill="#000000" fill-opacity="0.2"/><g transform="translate(302.5 28.5) scale(1.95)" opacity="0.92"><path d="M37 90Q44 87 45 74L45.5 52H54.5L55 74Q56 87 63 90Z" fill="#4E2E12"/><path d="M47 56Q40 50 30 44M53 55Q61 49 70 43M50 54Q49 44 51 34" stroke="#4E2E12" stroke-width="3.4" fill="none" stroke-linecap="round"/><path d="M47.5 60V86M50.5 58V88M53 62V85" stroke="#331E0C" stroke-width="0.8" opacity="0.7"/><g fill="#836D37"><circle cx="38.8" cy="24.2" r="7.4"/><circle cx="46.6" cy="23.9" r="6.5"/><circle cx="53.2" cy="22.3" r="7.9"/><circle cx="61.2" cy="21.2" r="6.3"/><circle cx="78.9" cy="24.8" r="6.8"/><circle cx="24.2" cy="31.9" r="6.6"/><circle cx="31.3" cy="32.4" r="7.4"/><circle cx="41.2" cy="28.6" r="8.2"/><circle cx="44.7" cy="29.8" r="6.2"/><circle cx="56.4" cy="31.2" r="8.2"/><circle cx="64.3" cy="32.5" r="7.3"/><circle cx="73.1" cy="31.5" r="6.9"/><circle cx="81.0" cy="29.7" r="6.5"/><circle cx="84.4" cy="30.1" r="6.5"/><circle cx="15.4" cy="35.7" r="7.3"/><circle cx="24.7" cy="36.2" r="7.0"/><circle cx="33.1" cy="37.1" r="6.9"/><circle cx="41.0" cy="39.0" r="8.1"/><circle cx="47.8" cy="37.0" r="7.6"/><circle cx="56.5" cy="38.1" r="6.6"/><circle cx="61.7" cy="36.9" r="7.8"/><circle cx="70.9" cy="37.7" r="7.9"/><circle cx="76.6" cy="38.1" r="6.8"/><circle cx="86.8" cy="39.1" r="6.7"/><circle cx="7.6" cy="44.7" r="6.6"/><circle cx="15.5" cy="44.4" r="7.1"/><circle cx="24.2" cy="42.0" r="6.9"/><circle cx="32.5" cy="42.7" r="8.0"/><circle cx="37.5" cy="45.4" r="6.5"/><circle cx="46.6" cy="44.1" r="6.3"/><circle cx="55.8" cy="44.4" r="7.6"/><circle cx="62.9" cy="44.8" r="7.3"/><circle cx="69.6" cy="46.5" r="6.3"/><circle cx="80.5" cy="46.4" r="7.2"/><circle cx="87.9" cy="45.4" r="7.4"/><circle cx="93.4" cy="43.6" r="6.9"/><circle cx="14.4" cy="51.1" r="7.0"/><circle cx="24.7" cy="51.5" r="7.3"/><circle cx="29.8" cy="50.5" r="6.3"/><circle cx="37.6" cy="50.5" r="8.0"/><circle cx="46.9" cy="49.7" r="7.1"/><circle cx="52.9" cy="52.0" r="7.1"/><circle cx="64.5" cy="50.4" r="8.0"/><circle cx="69.4" cy="54.1" r="7.5"/><circle cx="76.3" cy="53.2" r="6.7"/><circle cx="85.8" cy="49.9" r="7.9"/><circle cx="41.1" cy="57.2" r="6.2"/><circle cx="47.5" cy="57.0" r="7.7"/><circle cx="54.7" cy="59.8" r="7.4"/><circle cx="77.7" cy="56.9" r="6.3"/><circle cx="8.8" cy="40.0" r="4.8"/><circle cx="11.1" cy="49.7" r="3.9"/><circle cx="89.2" cy="35.6" r="3.8"/><circle cx="93.8" cy="41.6" r="5.0"/><circle cx="80.5" cy="55.3" r="3.9"/><circle cx="92.6" cy="47.3" r="4.0"/><circle cx="8.6" cy="39.4" r="3.6"/><circle cx="14.7" cy="52.2" r="3.3"/><circle cx="33.5" cy="58.5" r="4.0"/><circle cx="16.7" cy="28.4" r="4.0"/><circle cx="22.9" cy="24.0" r="4.0"/><circle cx="16.2" cy="29.7" r="5.0"/><circle cx="14.6" cy="32.4" r="4.4"/><circle cx="86.4" cy="28.3" r="5.0"/><circle cx="80.3" cy="23.4" r="3.9"/><circle cx="87.2" cy="38.5" r="3.3"/><circle cx="49.7" cy="15.6" r="4.5"/><circle cx="41.1" cy="17.0" r="3.7"/><circle cx="35.0" cy="20.4" r="3.4"/><circle cx="34.2" cy="21.6" r="4.2"/></g><g fill="#AA8D4A"><circle cx="37.5" cy="22.2" r="6.8"/><circle cx="45.3" cy="21.8" r="6.0"/><circle cx="51.9" cy="20.2" r="7.3"/><circle cx="59.9" cy="19.2" r="5.8"/><circle cx="77.6" cy="22.7" r="6.3"/><circle cx="22.9" cy="29.9" r="6.1"/><circle cx="30.0" cy="30.4" r="6.8"/><circle cx="39.9" cy="26.6" r="7.6"/><circle cx="43.4" cy="27.8" r="5.7"/><circle cx="55.1" cy="29.2" r="7.6"/><circle cx="63.0" cy="30.5" r="6.7"/><circle cx="71.8" cy="29.5" r="6.3"/><circle cx="79.7" cy="27.6" r="6.0"/><circle cx="83.1" cy="28.1" r="6.0"/><circle cx="14.1" cy="33.7" r="6.7"/><circle cx="23.4" cy="34.1" r="6.5"/><circle cx="31.8" cy="35.1" r="6.3"/><circle cx="39.7" cy="37.0" r="7.4"/><circle cx="46.5" cy="34.9" r="7.0"/><circle cx="55.2" cy="36.1" r="6.1"/><circle cx="60.4" cy="34.9" r="7.2"/><circle cx="69.6" cy="35.6" r="7.3"/><circle cx="75.3" cy="36.0" r="6.3"/><circle cx="85.5" cy="37.1" r="6.1"/><circle cx="6.3" cy="42.7" r="6.1"/><circle cx="14.2" cy="42.4" r="6.5"/><circle cx="22.9" cy="40.0" r="6.4"/><circle cx="31.2" cy="40.7" r="7.4"/><circle cx="36.2" cy="43.4" r="6.0"/><circle cx="45.3" cy="42.1" r="5.8"/><circle cx="54.5" cy="42.4" r="7.0"/><circle cx="61.6" cy="42.8" r="6.7"/><circle cx="68.3" cy="44.5" r="5.8"/><circle cx="79.2" cy="44.3" r="6.6"/><circle cx="86.6" cy="43.4" r="6.8"/><circle cx="92.1" cy="41.6" r="6.3"/><circle cx="13.1" cy="49.1" r="6.5"/><circle cx="23.4" cy="49.5" r="6.7"/><circle cx="28.5" cy="48.5" r="5.8"/><circle cx="36.3" cy="48.4" r="7.3"/><circle cx="45.6" cy="47.7" r="6.5"/><circle cx="51.6" cy="50.0" r="6.5"/><circle cx="63.2" cy="48.4" r="7.3"/><circle cx="68.1" cy="52.1" r="6.9"/><circle cx="75.0" cy="51.2" r="6.2"/><circle cx="84.5" cy="47.9" r="7.3"/><circle cx="39.8" cy="55.2" r="5.7"/><circle cx="46.2" cy="54.9" r="7.1"/><circle cx="53.4" cy="57.8" r="6.8"/><circle cx="76.4" cy="54.9" r="5.8"/><circle cx="7.8" cy="38.5" r="4.3"/><circle cx="10.3" cy="48.5" r="3.5"/><circle cx="88.5" cy="34.5" r="3.4"/><circle cx="92.8" cy="40.1" r="4.5"/><circle cx="79.7" cy="54.1" r="3.5"/><circle cx="91.8" cy="46.1" r="3.6"/><circle cx="7.9" cy="38.4" r="3.3"/><circle cx="14.1" cy="51.2" r="3.0"/><circle cx="32.7" cy="57.3" r="3.6"/><circle cx="15.9" cy="27.2" r="3.6"/><circle cx="22.0" cy="22.8" r="3.6"/><circle cx="15.2" cy="28.2" r="4.5"/><circle cx="13.8" cy="31.1" r="3.9"/><circle cx="85.4" cy="26.8" r="4.5"/><circle cx="79.5" cy="22.3" r="3.6"/><circle cx="86.5" cy="37.5" r="3.0"/><circle cx="48.8" cy="14.3" r="4.1"/><circle cx="40.4" cy="15.9" r="3.4"/><circle cx="34.3" cy="19.4" r="3.0"/><circle cx="33.3" cy="20.3" r="3.7"/></g><g fill="#D0B16A" fill-opacity="0.85"><circle cx="35.5" cy="20.0" r="3.7"/><circle cx="49.7" cy="17.9" r="3.9"/><circle cx="37.6" cy="24.1" r="4.1"/><circle cx="41.6" cy="26.0" r="3.1"/><circle cx="60.9" cy="28.3" r="3.6"/><circle cx="69.9" cy="27.5" r="3.4"/><circle cx="21.4" cy="32.0" r="3.5"/><circle cx="37.4" cy="34.5" r="4.0"/><circle cx="67.4" cy="33.3" r="4.0"/><circle cx="29.0" cy="38.3" r="4.0"/></g><path d="M0 -5C1.5 -4.5 2.5 -3.5 1.5 -2.5C3 -2 3 -0.5 1.6 0C3 0.6 2.8 2 1.4 2.4C2 3.5 1 4.6 0 5C-1 4.6 -2 3.5 -1.4 2.4C-2.8 2 -3 0.6 -1.6 0C-3 -0.5 -3 -2 -1.5 -2.5C-2.5 -3.5 -1.5 -4.5 0 -5Z" transform="translate(45.0 24.8) rotate(37) scale(0.81)" fill="#AA8D4A"/><path d="M0 -5C1.5 -4.5 2.5 -3.5 1.5 -2.5C3 -2 3 -0.5 1.6 0C3 0.6 2.8 2 1.4 2.4C2 3.5 1 4.6 0 5C-1 4.6 -2 3.5 -1.4 2.4C-2.8 2 -3 0.6 -1.6 0C-3 -0.5 -3 -2 -1.5 -2.5C-2.5 -3.5 -1.5 -4.5 0 -5Z" transform="translate(50.4 24.7) rotate(5) scale(0.98)" fill="#AA8D4A"/><path d="M0 -5C1.5 -4.5 2.5 -3.5 1.5 -2.5C3 -2 3 -0.5 1.6 0C3 0.6 2.8 2 1.4 2.4C2 3.5 1 4.6 0 5C-1 4.6 -2 3.5 -1.4 2.4C-2.8 2 -3 0.6 -1.6 0C-3 -0.5 -3 -2 -1.5 -2.5C-2.5 -3.5 -1.5 -4.5 0 -5Z" transform="translate(5.9 38.8) rotate(-5) scale(1.01)" fill="#836D37"/><path d="M0 -5C1.5 -4.5 2.5 -3.5 1.5 -2.5C3 -2 3 -0.5 1.6 0C3 0.6 2.8 2 1.4 2.4C2 3.5 1 4.6 0 5C-1 4.6 -2 3.5 -1.4 2.4C-2.8 2 -3 0.6 -1.6 0C-3 -0.5 -3 -2 -1.5 -2.5C-2.5 -3.5 -1.5 -4.5 0 -5Z" transform="translate(92.2 47.9) rotate(42) scale(0.98)" fill="#AA8D4A"/><path d="M0 -5C1.5 -4.5 2.5 -3.5 1.5 -2.5C3 -2 3 -0.5 1.6 0C3 0.6 2.8 2 1.4 2.4C2 3.5 1 4.6 0 5C-1 4.6 -2 3.5 -1.4 2.4C-2.8 2 -3 0.6 -1.6 0C-3 -0.5 -3 -2 -1.5 -2.5C-2.5 -3.5 -1.5 -4.5 0 -5Z" transform="translate(83.0 30.3) rotate(-40) scale(0.89)" fill="#836D37"/><path d="M0 -5C1.5 -4.5 2.5 -3.5 1.5 -2.5C3 -2 3 -0.5 1.6 0C3 0.6 2.8 2 1.4 2.4C2 3.5 1 4.6 0 5C-1 4.6 -2 3.5 -1.4 2.4C-2.8 2 -3 0.6 -1.6 0C-3 -0.5 -3 -2 -1.5 -2.5C-2.5 -3.5 -1.5 -4.5 0 -5Z" transform="translate(72.5 27.0) rotate(-41) scale(0.88)" fill="#AA8D4A"/><path d="M0 -5C1.5 -4.5 2.5 -3.5 1.5 -2.5C3 -2 3 -0.5 1.6 0C3 0.6 2.8 2 1.4 2.4C2 3.5 1 4.6 0 5C-1 4.6 -2 3.5 -1.4 2.4C-2.8 2 -3 0.6 -1.6 0C-3 -0.5 -3 -2 -1.5 -2.5C-2.5 -3.5 -1.5 -4.5 0 -5Z" transform="translate(12.9 51.8) rotate(39) scale(1.06)" fill="#AA8D4A"/><path d="M0 -5C1.5 -4.5 2.5 -3.5 1.5 -2.5C3 -2 3 -0.5 1.6 0C3 0.6 2.8 2 1.4 2.4C2 3.5 1 4.6 0 5C-1 4.6 -2 3.5 -1.4 2.4C-2.8 2 -3 0.6 -1.6 0C-3 -0.5 -3 -2 -1.5 -2.5C-2.5 -3.5 -1.5 -4.5 0 -5Z" transform="translate(6.3 38.1) rotate(-48) scale(0.93)" fill="#AA8D4A"/><path d="M0 -5C1.5 -4.5 2.5 -3.5 1.5 -2.5C3 -2 3 -0.5 1.6 0C3 0.6 2.8 2 1.4 2.4C2 3.5 1 4.6 0 5C-1 4.6 -2 3.5 -1.4 2.4C-2.8 2 -3 0.6 -1.6 0C-3 -0.5 -3 -2 -1.5 -2.5C-2.5 -3.5 -1.5 -4.5 0 -5Z" transform="translate(9.2 34.8) rotate(-30) scale(0.81)" fill="#836D37"/><path d="M0 -5C1.5 -4.5 2.5 -3.5 1.5 -2.5C3 -2 3 -0.5 1.6 0C3 0.6 2.8 2 1.4 2.4C2 3.5 1 4.6 0 5C-1 4.6 -2 3.5 -1.4 2.4C-2.8 2 -3 0.6 -1.6 0C-3 -0.5 -3 -2 -1.5 -2.5C-2.5 -3.5 -1.5 -4.5 0 -5Z" transform="translate(7.3 36.6) rotate(-42) scale(0.95)" fill="#AA8D4A"/><path d="M0 -5C1.5 -4.5 2.5 -3.5 1.5 -2.5C3 -2 3 -0.5 1.6 0C3 0.6 2.8 2 1.4 2.4C2 3.5 1 4.6 0 5C-1 4.6 -2 3.5 -1.4 2.4C-2.8 2 -3 0.6 -1.6 0C-3 -0.5 -3 -2 -1.5 -2.5C-2.5 -3.5 -1.5 -4.5 0 -5Z" transform="translate(92.9 36.9) rotate(14) scale(0.83)" fill="#AA8D4A"/><path d="M0 -5C1.5 -4.5 2.5 -3.5 1.5 -2.5C3 -2 3 -0.5 1.6 0C3 0.6 2.8 2 1.4 2.4C2 3.5 1 4.6 0 5C-1 4.6 -2 3.5 -1.4 2.4C-2.8 2 -3 0.6 -1.6 0C-3 -0.5 -3 -2 -1.5 -2.5C-2.5 -3.5 -1.5 -4.5 0 -5Z" transform="translate(41.5 43.9) rotate(50) scale(0.84)" fill="#836D37"/><path d="M0 -5C1.5 -4.5 2.5 -3.5 1.5 -2.5C3 -2 3 -0.5 1.6 0C3 0.6 2.8 2 1.4 2.4C2 3.5 1 4.6 0 5C-1 4.6 -2 3.5 -1.4 2.4C-2.8 2 -3 0.6 -1.6 0C-3 -0.5 -3 -2 -1.5 -2.5C-2.5 -3.5 -1.5 -4.5 0 -5Z" transform="translate(40.1 23.2) rotate(11) scale(0.82)" fill="#AA8D4A"/><path d="M0 -5C1.5 -4.5 2.5 -3.5 1.5 -2.5C3 -2 3 -0.5 1.6 0C3 0.6 2.8 2 1.4 2.4C2 3.5 1 4.6 0 5C-1 4.6 -2 3.5 -1.4 2.4C-2.8 2 -3 0.6 -1.6 0C-3 -0.5 -3 -2 -1.5 -2.5C-2.5 -3.5 -1.5 -4.5 0 -5Z" transform="translate(23.2 21.8) rotate(27) scale(0.83)" fill="#AA8D4A"/><path d="M0 -5C1.5 -4.5 2.5 -3.5 1.5 -2.5C3 -2 3 -0.5 1.6 0C3 0.6 2.8 2 1.4 2.4C2 3.5 1 4.6 0 5C-1 4.6 -2 3.5 -1.4 2.4C-2.8 2 -3 0.6 -1.6 0C-3 -0.5 -3 -2 -1.5 -2.5C-2.5 -3.5 -1.5 -4.5 0 -5Z" transform="translate(22.3 22.1) rotate(-5) scale(0.92)" fill="#AA8D4A"/><path d="M0 -5C1.5 -4.5 2.5 -3.5 1.5 -2.5C3 -2 3 -0.5 1.6 0C3 0.6 2.8 2 1.4 2.4C2 3.5 1 4.6 0 5C-1 4.6 -2 3.5 -1.4 2.4C-2.8 2 -3 0.6 -1.6 0C-3 -0.5 -3 -2 -1.5 -2.5C-2.5 -3.5 -1.5 -4.5 0 -5Z" transform="translate(47.2 32.6) rotate(30) scale(0.90)" fill="#AA8D4A"/><path d="M0 -5C1.5 -4.5 2.5 -3.5 1.5 -2.5C3 -2 3 -0.5 1.6 0C3 0.6 2.8 2 1.4 2.4C2 3.5 1 4.6 0 5C-1 4.6 -2 3.5 -1.4 2.4C-2.8 2 -3 0.6 -1.6 0C-3 -0.5 -3 -2 -1.5 -2.5C-2.5 -3.5 -1.5 -4.5 0 -5Z" transform="translate(13.9 29.2) rotate(28) scale(1.04)" fill="#AA8D4A"/><path d="M0 -5C1.5 -4.5 2.5 -3.5 1.5 -2.5C3 -2 3 -0.5 1.6 0C3 0.6 2.8 2 1.4 2.4C2 3.5 1 4.6 0 5C-1 4.6 -2 3.5 -1.4 2.4C-2.8 2 -3 0.6 -1.6 0C-3 -0.5 -3 -2 -1.5 -2.5C-2.5 -3.5 -1.5 -4.5 0 -5Z" transform="translate(29.9 20.7) rotate(24) scale(0.93)" fill="#AA8D4A"/><path d="M0 -5C1.5 -4.5 2.5 -3.5 1.5 -2.5C3 -2 3 -0.5 1.6 0C3 0.6 2.8 2 1.4 2.4C2 3.5 1 4.6 0 5C-1 4.6 -2 3.5 -1.4 2.4C-2.8 2 -3 0.6 -1.6 0C-3 -0.5 -3 -2 -1.5 -2.5C-2.5 -3.5 -1.5 -4.5 0 -5Z" transform="translate(17.4 24.9) rotate(-13) scale(1.05)" fill="#AA8D4A"/><path d="M0 -5C1.5 -4.5 2.5 -3.5 1.5 -2.5C3 -2 3 -0.5 1.6 0C3 0.6 2.8 2 1.4 2.4C2 3.5 1 4.6 0 5C-1 4.6 -2 3.5 -1.4 2.4C-2.8 2 -3 0.6 -1.6 0C-3 -0.5 -3 -2 -1.5 -2.5C-2.5 -3.5 -1.5 -4.5 0 -5Z" transform="translate(63.0 20.8) rotate(34) scale(0.88)" fill="#AA8D4A"/><path d="M0 -5C1.5 -4.5 2.5 -3.5 1.5 -2.5C3 -2 3 -0.5 1.6 0C3 0.6 2.8 2 1.4 2.4C2 3.5 1 4.6 0 5C-1 4.6 -2 3.5 -1.4 2.4C-2.8 2 -3 0.6 -1.6 0C-3 -0.5 -3 -2 -1.5 -2.5C-2.5 -3.5 -1.5 -4.5 0 -5Z" transform="translate(52.1 30.2) rotate(45) scale(1.09)" fill="#AA8D4A"/><path d="M0 -5C1.5 -4.5 2.5 -3.5 1.5 -2.5C3 -2 3 -0.5 1.6 0C3 0.6 2.8 2 1.4 2.4C2 3.5 1 4.6 0 5C-1 4.6 -2 3.5 -1.4 2.4C-2.8 2 -3 0.6 -1.6 0C-3 -0.5 -3 -2 -1.5 -2.5C-2.5 -3.5 -1.5 -4.5 0 -5Z" transform="translate(88.0 35.5) rotate(-11) scale(0.98)" fill="#AA8D4A"/><path d="M0 -5C1.5 -4.5 2.5 -3.5 1.5 -2.5C3 -2 3 -0.5 1.6 0C3 0.6 2.8 2 1.4 2.4C2 3.5 1 4.6 0 5C-1 4.6 -2 3.5 -1.4 2.4C-2.8 2 -3 0.6 -1.6 0C-3 -0.5 -3 -2 -1.5 -2.5C-2.5 -3.5 -1.5 -4.5 0 -5Z" transform="translate(88.1 30.8) rotate(6) scale(0.85)" fill="#AA8D4A"/><path d="M0 -5C1.5 -4.5 2.5 -3.5 1.5 -2.5C3 -2 3 -0.5 1.6 0C3 0.6 2.8 2 1.4 2.4C2 3.5 1 4.6 0 5C-1 4.6 -2 3.5 -1.4 2.4C-2.8 2 -3 0.6 -1.6 0C-3 -0.5 -3 -2 -1.5 -2.5C-2.5 -3.5 -1.5 -4.5 0 -5Z" transform="translate(52.6 28.8) rotate(-43) scale(0.94)" fill="#836D37"/><path d="M0 -5C1.5 -4.5 2.5 -3.5 1.5 -2.5C3 -2 3 -0.5 1.6 0C3 0.6 2.8 2 1.4 2.4C2 3.5 1 4.6 0 5C-1 4.6 -2 3.5 -1.4 2.4C-2.8 2 -3 0.6 -1.6 0C-3 -0.5 -3 -2 -1.5 -2.5C-2.5 -3.5 -1.5 -4.5 0 -5Z" transform="translate(80.6 22.2) rotate(39) scale(0.86)" fill="#AA8D4A"/><path d="M0 -5C1.5 -4.5 2.5 -3.5 1.5 -2.5C3 -2 3 -0.5 1.6 0C3 0.6 2.8 2 1.4 2.4C2 3.5 1 4.6 0 5C-1 4.6 -2 3.5 -1.4 2.4C-2.8 2 -3 0.6 -1.6 0C-3 -0.5 -3 -2 -1.5 -2.5C-2.5 -3.5 -1.5 -4.5 0 -5Z" transform="translate(81.1 22.4) rotate(-1) scale(0.84)" fill="#836D37"/><path d="M0 -5C1.5 -4.5 2.5 -3.5 1.5 -2.5C3 -2 3 -0.5 1.6 0C3 0.6 2.8 2 1.4 2.4C2 3.5 1 4.6 0 5C-1 4.6 -2 3.5 -1.4 2.4C-2.8 2 -3 0.6 -1.6 0C-3 -0.5 -3 -2 -1.5 -2.5C-2.5 -3.5 -1.5 -4.5 0 -5Z" transform="translate(52.0 30.2) rotate(13) scale(0.83)" fill="#AA8D4A"/><path d="M0 -5C1.5 -4.5 2.5 -3.5 1.5 -2.5C3 -2 3 -0.5 1.6 0C3 0.6 2.8 2 1.4 2.4C2 3.5 1 4.6 0 5C-1 4.6 -2 3.5 -1.4 2.4C-2.8 2 -3 0.6 -1.6 0C-3 -0.5 -3 -2 -1.5 -2.5C-2.5 -3.5 -1.5 -4.5 0 -5Z" transform="translate(88.3 33.5) rotate(-4) scale(0.97)" fill="#AA8D4A"/><path d="M0 -5C1.5 -4.5 2.5 -3.5 1.5 -2.5C3 -2 3 -0.5 1.6 0C3 0.6 2.8 2 1.4 2.4C2 3.5 1 4.6 0 5C-1 4.6 -2 3.5 -1.4 2.4C-2.8 2 -3 0.6 -1.6 0C-3 -0.5 -3 -2 -1.5 -2.5C-2.5 -3.5 -1.5 -4.5 0 -5Z" transform="translate(87.9 30.0) rotate(-47) scale(1.09)" fill="#836D37"/><path d="M0 -5C1.5 -4.5 2.5 -3.5 1.5 -2.5C3 -2 3 -0.5 1.6 0C3 0.6 2.8 2 1.4 2.4C2 3.5 1 4.6 0 5C-1 4.6 -2 3.5 -1.4 2.4C-2.8 2 -3 0.6 -1.6 0C-3 -0.5 -3 -2 -1.5 -2.5C-2.5 -3.5 -1.5 -4.5 0 -5Z" transform="translate(86.9 27.9) rotate(4) scale(1.07)" fill="#AA8D4A"/></g></svg>